
    
      <!-- background.svg -->
      <svg width="1200" height="1000" viewBox="-50 0 1000 700" fill="none" xmlns="http://www.w3.org/2000/svg">
        <path d="M462.5 186C515.243 186 558 144.362 558 93C558 41.6375 515.243 0 462.5 0C409.757 0 367 41.6375 367 93C367 144.362 409.757 186 462.5 186Z" fill="#DB1F48" fill-opacity="0.1"/>
        <path d="M536.5 503C589.243 503 632 461.362 632 410C632 358.638 589.243 317 536.5 317C483.757 317 441 358.638 441 410C441 461.362 483.757 503 536.5 503Z" fill="#01949A" fill-opacity="0.1"/>
        <path d="M833.5 186C886.243 186 929 144.362 929 93C929 41.6375 886.243 0 833.5 0C780.757 0 738 41.6375 738 93C738 144.362 780.757 186 833.5 186Z" fill="#004369" fill-opacity="0.1"/>
        <path opacity="0.5" d="M95.5 383C148.243 383 191 341.362 191 290C191 238.638 148.243 197 95.5 197C42.7568 197 0 238.638 0 290C0 341.362 42.7568 383 95.5 383Z" fill="#E5FFC8" fill-opacity="0.1"/>
      </svg>
